<svg width="52" height="44" viewBox="0 0 52 44" fill="none" xmlns="http://www.w3.org/2000/svg">
<path d="M30.7892 12.4442H27.1603V24.5403L37.5146 30.6851L39.2564 27.7579L30.7892 22.7259V12.4442ZM29.5796 0.348145C23.805 0.348145 18.267 2.64207 14.1838 6.7253C10.1005 10.8085 7.8066 16.3466 7.8066 22.1211H0.54895L10.1291 31.8706L19.9027 22.1211H12.645C12.645 17.6298 14.4292 13.3224 17.605 10.1466C20.7809 6.97075 25.0882 5.18658 29.5796 5.18658C34.0709 5.18658 38.3782 6.97075 41.5541 10.1466C44.7299 13.3224 46.5141 17.6298 46.5141 22.1211C46.5141 26.6124 44.7299 30.9198 41.5541 34.0956C38.3782 37.2715 34.0709 39.0556 29.5796 39.0556C24.9105 39.0556 20.6768 37.1444 17.6286 34.072L14.1933 37.5073C16.2048 39.541 18.6016 41.1532 21.2434 42.2498C23.8853 43.3464 26.7192 43.9054 29.5796 43.8941C35.3541 43.8941 40.8921 41.6001 44.9754 37.5169C49.0586 33.4337 51.3525 27.8957 51.3525 22.1211C51.3525 16.3466 49.0586 10.8085 44.9754 6.7253C40.8921 2.64207 35.3541 0.348145 29.5796 0.348145Z" fill="#F3723F"/>
</svg>
