<svg width="63" height="58" viewBox="0 0 63 58" fill="none" xmlns="http://www.w3.org/2000/svg">
<path d="M20.8756 4.19911C22.9211 4.19911 24.9206 4.80567 26.6214 5.94208C28.3221 7.07849 29.6477 8.69371 30.4305 10.5835C31.2132 12.4733 31.4181 14.5527 31.019 16.5589C30.6199 18.5651 29.635 20.4079 28.1886 21.8543C26.7422 23.3006 24.8994 24.2856 22.8932 24.6847C20.887 25.0837 18.8076 24.8789 16.9178 24.0962C15.028 23.3134 13.4128 21.9878 12.2764 20.287C11.14 18.5863 10.5334 16.5867 10.5334 14.5413C10.5334 11.7984 11.623 9.16779 13.5626 7.22826C15.5021 5.28873 18.1327 4.19911 20.8756 4.19911ZM20.8756 0.0622559C18.0119 0.0622559 15.2125 0.911435 12.8315 2.50241C10.4504 4.09338 8.5946 6.35469 7.49872 9.00039C6.40284 11.6461 6.11611 14.5573 6.67478 17.366C7.23346 20.1746 8.61245 22.7545 10.6374 24.7795C12.6623 26.8044 15.2422 28.1834 18.0509 28.7421C20.8595 29.3007 23.7708 29.014 26.4165 27.9181C29.0621 26.8222 31.3235 24.9664 32.9144 22.5854C34.5054 20.2043 35.3546 17.4049 35.3546 14.5413C35.3546 10.7012 33.8291 7.0184 31.1138 4.30306C28.3984 1.58772 24.7156 0.0622559 20.8756 0.0622559ZM41.5599 57.9783H37.423V47.6361C37.423 44.8932 36.3334 42.2627 34.3939 40.3231C32.4543 38.3836 29.8238 37.294 27.0809 37.294H14.6703C11.9274 37.294 9.29682 38.3836 7.35729 40.3231C5.41776 42.2627 4.32814 44.8932 4.32814 47.6361V57.9783H0.191284V47.6361C0.191284 43.7961 1.71675 40.1133 4.43209 37.3979C7.14743 34.6826 10.8302 33.1571 14.6703 33.1571H27.0809C30.9209 33.1571 34.6037 34.6826 37.3191 37.3979C40.0344 40.1133 41.5599 43.7961 41.5599 47.6361V57.9783ZM41.5599 4.19911H62.2442V8.33597H41.5599V4.19911ZM41.5599 14.5413H62.2442V18.6781H41.5599V14.5413ZM41.5599 24.8834H56.0389V29.0203H41.5599V24.8834Z" fill="#0D3A94"/>
</svg>
