<svg width="46" height="43" viewBox="0 0 46 43" fill="none" xmlns="http://www.w3.org/2000/svg">
<path d="M39.5593 25.7294H45.0751V42.2768H23.0119V25.7294H28.5277V20.2135H39.5593V25.7294ZM31.2856 25.7294H36.8014V22.9714H31.2856V25.7294ZM42.3172 34.0031H39.5593V36.761H36.8014V34.0031H31.2856V36.761H28.5277V34.0031H25.7698V39.5189H42.3172V34.0031ZM25.7698 28.4873V31.2452H42.3172V28.4873H25.7698ZM20.2539 17.4556C20.2539 18.7915 19.9595 20.0412 19.3706 21.2047C18.7816 22.3682 17.9413 23.3449 16.8497 24.1349C17.496 24.4653 18.1065 24.846 18.6811 25.2769C19.2556 25.7078 19.7799 26.189 20.2539 26.7205V34.0031C20.2539 32.8683 20.0385 31.7982 19.6076 30.7927C19.1766 29.7872 18.5877 28.911 17.8408 28.1641C17.0938 27.4171 16.2105 26.821 15.1906 26.3757C14.1708 25.9305 13.1006 25.715 11.9802 25.7294C10.8311 25.7294 9.76098 25.9448 8.76986 26.3757C7.77873 26.8067 6.90252 27.3956 6.14123 28.1425C5.37993 28.8895 4.78382 29.7728 4.3529 30.7927C3.92198 31.8125 3.70651 32.8827 3.70651 34.0031H0.948608C0.948608 32.9545 1.09225 31.9418 1.37953 30.9651C1.66681 29.9883 2.07619 29.0618 2.60766 28.1856C3.13913 27.3094 3.7927 26.5337 4.56836 25.8586C5.34402 25.1835 6.1915 24.6018 7.1108 24.1134C6.0335 23.3377 5.20038 22.3682 4.61145 21.2047C4.02252 20.0412 3.72088 18.7915 3.70651 17.4556C3.70651 16.3209 3.92198 15.2507 4.3529 14.2453C4.78382 13.2398 5.37275 12.3636 6.11968 11.6166C6.86661 10.8697 7.74282 10.2736 8.74831 9.8283C9.7538 9.38302 10.8311 9.16756 11.9802 9.18192C13.0144 9.18192 13.9984 9.36147 14.9321 9.72057C15.8657 10.0797 16.7204 10.6111 17.496 11.315C17.9557 10.8984 18.4656 10.5321 19.0258 10.2161C18.5374 9.71339 18.164 9.13165 17.9054 8.4709C17.6469 7.81015 17.5104 7.12785 17.496 6.42401C17.496 5.66272 17.6397 4.95169 17.927 4.29095C18.2142 3.6302 18.6093 3.04127 19.112 2.52416C19.6147 2.00706 20.1965 1.61204 20.8572 1.33913C21.518 1.06621 22.2362 0.922567 23.0119 0.908203C23.7731 0.908203 24.4842 1.05184 25.1449 1.33913C25.8057 1.62641 26.3946 2.02142 26.9117 2.52416C27.4288 3.02691 27.8238 3.60865 28.0967 4.2694C28.3697 4.93015 28.5133 5.64835 28.5277 6.42401C28.5277 7.12785 28.3984 7.81015 28.1398 8.4709C27.8813 9.13165 27.5006 9.71339 26.9979 10.2161C28.1901 10.8769 29.1597 11.7675 29.9066 12.8879C30.6535 11.7675 31.6231 10.8769 32.8153 10.2161C32.327 9.71339 31.9535 9.13165 31.6949 8.4709C31.4364 7.81015 31.2999 7.12785 31.2856 6.42401C31.2856 5.66272 31.4292 4.95169 31.7165 4.29095C32.0038 3.6302 32.3988 3.04127 32.9015 2.52416C33.4043 2.00706 33.986 1.61204 34.6468 1.33913C35.3075 1.06621 36.0257 0.922567 36.8014 0.908203C37.5627 0.908203 38.2737 1.05184 38.9344 1.33913C39.5952 1.62641 40.1841 2.02142 40.7012 2.52416C41.2183 3.02691 41.6133 3.60865 41.8863 4.2694C42.1592 4.93015 42.3028 5.64835 42.3172 6.42401C42.3172 7.12785 42.1879 7.81015 41.9294 8.4709C41.6708 9.13165 41.2902 9.71339 40.7874 10.2161C41.4482 10.5752 42.0443 11.0133 42.5757 11.5304C43.1072 12.0476 43.5525 12.6149 43.9116 13.2326C44.2707 13.8502 44.558 14.5254 44.7734 15.2579C44.9889 15.9905 45.0895 16.7231 45.0751 17.4556H42.3172C42.3172 16.6943 42.1735 15.9833 41.8863 15.3226C41.599 14.6618 41.204 14.0729 40.7012 13.5558C40.1985 13.0387 39.6167 12.6437 38.956 12.3707C38.2952 12.0978 37.577 11.9542 36.8014 11.9398C36.0401 11.9398 35.3291 12.0835 34.6683 12.3707C34.0076 12.658 33.4186 13.053 32.9015 13.5558C32.3844 14.0585 31.9894 14.6403 31.7165 15.301C31.4436 15.9618 31.2999 16.68 31.2856 17.4556H28.5277C28.5277 16.6943 28.384 15.9833 28.0967 15.3226C27.8095 14.6618 27.4144 14.0729 26.9117 13.5558C26.409 13.0387 25.8272 12.6437 25.1665 12.3707C24.5057 12.0978 23.7875 11.9542 23.0119 11.9398C22.308 11.9398 21.6257 12.0691 20.965 12.3277C20.3042 12.5862 19.7225 12.9669 19.2197 13.4696C19.5645 14.0729 19.823 14.7121 19.9954 15.3872C20.1678 16.0623 20.2539 16.7518 20.2539 17.4556ZM36.8014 3.66611C36.4135 3.66611 36.0544 3.73793 35.7241 3.88157C35.3937 4.02521 35.1064 4.21913 34.8622 4.46332C34.618 4.70751 34.4169 5.00197 34.2589 5.34671C34.1009 5.69145 34.0291 6.05055 34.0435 6.42401C34.0435 6.81184 34.1153 7.17095 34.2589 7.50132C34.4026 7.8317 34.5965 8.11898 34.8407 8.36317C35.0849 8.60736 35.3793 8.80845 35.7241 8.96646C36.0688 9.12446 36.4279 9.19628 36.8014 9.18192C37.1892 9.18192 37.5483 9.1101 37.8787 8.96646C38.2091 8.82282 38.4963 8.6289 38.7405 8.38471C38.9847 8.14052 39.1858 7.84606 39.3438 7.50132C39.5018 7.15658 39.5737 6.79748 39.5593 6.42401C39.5593 6.03618 39.4875 5.67708 39.3438 5.34671C39.2002 5.01633 39.0063 4.72905 38.7621 4.48486C38.5179 4.24067 38.2234 4.03957 37.8787 3.88157C37.5339 3.72356 37.1748 3.65174 36.8014 3.66611ZM23.0119 3.66611C22.624 3.66611 22.2649 3.73793 21.9345 3.88157C21.6042 4.02521 21.3169 4.21913 21.0727 4.46332C20.8285 4.70751 20.6274 5.00197 20.4694 5.34671C20.3114 5.69145 20.2396 6.05055 20.2539 6.42401C20.2539 6.81184 20.3258 7.17095 20.4694 7.50132C20.613 7.8317 20.807 8.11898 21.0512 8.36317C21.2953 8.60736 21.5898 8.80845 21.9345 8.96646C22.2793 9.12446 22.6384 9.19628 23.0119 9.18192C23.3997 9.18192 23.7588 9.1101 24.0892 8.96646C24.4195 8.82282 24.7068 8.6289 24.951 8.38471C25.1952 8.14052 25.3963 7.84606 25.5543 7.50132C25.7123 7.15658 25.7841 6.79748 25.7698 6.42401C25.7698 6.03618 25.6979 5.67708 25.5543 5.34671C25.4107 5.01633 25.2167 4.72905 24.9726 4.48486C24.7284 4.24067 24.4339 4.03957 24.0892 3.88157C23.7444 3.72356 23.3853 3.65174 23.0119 3.66611ZM11.9802 22.9714C12.7415 22.9714 13.4525 22.8278 14.1133 22.5405C14.774 22.2532 15.363 21.8582 15.8801 21.3555C16.3972 20.8527 16.7922 20.271 17.0651 19.6103C17.338 18.9495 17.4817 18.2313 17.496 17.4556C17.496 16.6943 17.3524 15.9833 17.0651 15.3226C16.7778 14.6618 16.3828 14.0729 15.8801 13.5558C15.3773 13.0387 14.7956 12.6437 14.1348 12.3707C13.4741 12.0978 12.7559 11.9542 11.9802 11.9398C11.2189 11.9398 10.5079 12.0835 9.84716 12.3707C9.18641 12.658 8.59749 13.053 8.08038 13.5558C7.56327 14.0585 7.16826 14.6403 6.89534 15.301C6.62242 15.9618 6.47878 16.68 6.46442 17.4556C6.46442 18.2169 6.60806 18.928 6.89534 19.5887C7.18262 20.2495 7.57764 20.8384 8.08038 21.3555C8.58312 21.8726 9.16487 22.2676 9.82562 22.5405C10.4864 22.8134 11.2046 22.9571 11.9802 22.9714Z" fill="#463AEB"/>
</svg>
