<svg width="48" height="49" viewBox="0 0 48 49" fill="none" xmlns="http://www.w3.org/2000/svg">
<path d="M24.6299 21.72C22.9428 21.7022 21.2987 21.1857 19.9046 20.2355C18.5104 19.2853 17.4286 17.9439 16.7952 16.3801C16.1619 14.8163 16.0053 13.1001 16.3453 11.4475C16.6853 9.79494 17.5067 8.27991 18.7059 7.09315C19.9051 5.9064 21.4287 5.10099 23.0847 4.77831C24.7408 4.45564 26.4552 4.63013 28.0123 5.27982C29.5694 5.92951 30.8994 7.02535 31.835 8.42937C32.7706 9.8334 33.2698 11.4828 33.2699 13.17C33.2541 15.4483 32.3358 17.6275 30.7164 19.23C29.0969 20.8326 26.9083 21.728 24.6299 21.72ZM24.6299 7.62001C23.5362 7.63775 22.4722 7.97827 21.5714 8.59879C20.6706 9.21932 19.9733 10.0922 19.567 11.1077C19.1607 12.1233 19.0636 13.2363 19.2878 14.3069C19.512 15.3775 20.0475 16.358 20.8272 17.1252C21.6068 17.8924 22.5958 18.4121 23.6698 18.619C24.7439 18.826 25.8552 18.711 26.8641 18.2884C27.873 17.8658 28.7345 17.1545 29.3405 16.2439C29.9464 15.3332 30.2698 14.2638 30.2699 13.17C30.2541 11.6874 29.6519 10.2713 28.5951 9.23129C27.5382 8.1913 26.1126 7.612 24.6299 7.62001Z" fill="#0CBC8B"/>
<path d="M24.6302 21.72C22.9431 21.7022 21.299 21.1857 19.9048 20.2355C18.5107 19.2853 17.4288 17.9439 16.7955 16.3801C16.1621 14.8163 16.0056 13.1001 16.3456 11.4475C16.6856 9.79494 17.5069 8.27991 18.7062 7.09315C19.9054 5.9064 21.429 5.10099 23.085 4.77831C24.741 4.45564 26.4555 4.63013 28.0126 5.27982C29.5697 5.92951 30.8997 7.02535 31.8353 8.42937C32.7708 9.8334 33.2701 11.4828 33.2702 13.17C33.2543 15.4483 32.3361 17.6275 30.7166 19.23C29.0972 20.8326 26.9085 21.728 24.6302 21.72ZM24.6302 7.62001C23.5365 7.63775 22.4725 7.97827 21.5717 8.59879C20.6709 9.21932 19.9736 10.0922 19.5673 11.1077C19.161 12.1233 19.0638 13.2363 19.288 14.3069C19.5122 15.3775 20.0478 16.358 20.8274 17.1252C21.6071 17.8924 22.5961 18.4121 23.6701 18.619C24.7442 18.826 25.8555 18.711 26.8644 18.2884C27.8732 17.8658 28.7348 17.1545 29.3407 16.2439C29.9467 15.3332 30.27 14.2638 30.2702 13.17C30.2544 11.6874 29.6522 10.2713 28.5954 9.23129C27.5385 8.1913 26.1129 7.612 24.6302 7.62001ZM29.8652 23.73C23.212 22.5723 16.3627 23.626 10.3652 26.73C9.93945 26.9664 9.58693 27.3153 9.34618 27.7386C9.10543 28.1619 8.98574 28.6433 9.00019 29.13V34.47C9.00019 34.8678 9.15823 35.2494 9.43953 35.5307C9.72084 35.812 10.1024 35.97 10.5002 35.97C10.898 35.97 11.2795 35.812 11.5609 35.5307C11.8422 35.2494 12.0002 34.8678 12.0002 34.47V29.325C17.5617 26.5345 23.8862 25.649 30.0002 26.805L29.8652 23.73Z" fill="#0CBC8B"/>
<path d="M46.5 30.255H36.45V28.035C36.45 27.6372 36.292 27.2557 36.0107 26.9744C35.7294 26.6931 35.3478 26.535 34.95 26.535C34.5522 26.535 34.1706 26.6931 33.8893 26.9744C33.608 27.2557 33.45 27.6372 33.45 28.035V30.255H22.5C22.1022 30.255 21.7206 30.4131 21.4393 30.6944C21.158 30.9757 21 31.3572 21 31.755V46.755C21 47.1529 21.158 47.5344 21.4393 47.8157C21.7206 48.097 22.1022 48.255 22.5 48.255H46.5C46.8978 48.255 47.2794 48.097 47.5607 47.8157C47.842 47.5344 48 47.1529 48 46.755V31.755C48 31.3572 47.842 30.9757 47.5607 30.6944C47.2794 30.4131 46.8978 30.255 46.5 30.255ZM45 45.255H24V33.255H33.45V33.87C33.45 34.2679 33.608 34.6494 33.8893 34.9307C34.1706 35.212 34.5522 35.37 34.95 35.37C35.3478 35.37 35.7294 35.212 36.0107 34.9307C36.292 34.6494 36.45 34.2679 36.45 33.87V33.255H45V45.255Z" fill="#0CBC8B"/>
<path d="M29.715 38.3851H38.655V40.4851H29.715V38.3851ZM13.26 15.6151C9.10717 15.6845 5.02634 16.7112 1.335 18.6151C0.933543 18.8271 0.597266 19.1443 0.362122 19.5327C0.126978 19.9211 0.00181027 20.366 0 20.8201V25.4701C0 25.8679 0.158035 26.2494 0.43934 26.5307C0.720644 26.812 1.10218 26.9701 1.5 26.9701C1.89782 26.9701 2.27936 26.812 2.56066 26.5307C2.84196 26.2494 3 25.8679 3 25.4701V21.1201C6.52695 19.3645 10.4318 18.5042 14.37 18.6151C13.8547 17.675 13.4807 16.6641 13.26 15.6151ZM46.665 18.6001C43.3543 16.8634 39.7158 15.8413 35.985 15.6001C35.7653 16.6473 35.3966 17.6576 34.89 18.6001C38.4046 18.6842 41.8571 19.5447 45 21.1201V25.4701C45 25.8679 45.158 26.2494 45.4393 26.5307C45.7206 26.812 46.1022 26.9701 46.5 26.9701C46.8978 26.9701 47.2794 26.812 47.5607 26.5307C47.842 26.2494 48 25.8679 48 25.4701V20.8201C48.0009 20.3635 47.877 19.9154 47.6417 19.5241C47.4064 19.1328 47.0687 18.8133 46.665 18.6001ZM12.99 13.1701V12.1651C11.8149 12.0078 10.7458 11.4034 10.0051 10.4777C9.26444 9.55199 8.90933 8.37629 9.0137 7.19534C9.11807 6.0144 9.67388 4.9192 10.5654 4.13774C11.457 3.35629 12.6156 2.94878 13.8 3.00006C15.032 2.99783 16.2161 3.47686 17.1 4.33506C17.8798 3.69183 18.7364 3.14769 19.65 2.71506C18.6294 1.54154 17.2772 0.704817 15.7716 0.315164C14.266 -0.0744883 12.6776 0.00122322 11.2159 0.53232C9.75413 1.06342 8.48763 2.02497 7.58329 3.29024C6.67896 4.55551 6.17924 6.06511 6.15 7.62006C6.18148 9.52319 6.9213 11.3462 8.22495 12.7331C9.5286 14.12 11.3024 14.971 13.2 15.1201C13.0728 14.4775 13.0025 13.825 12.99 13.1701ZM34.155 6.01142e-05C33.1242 0.000287044 32.1038 0.206019 31.1534 0.605227C30.203 1.00444 29.3418 1.58911 28.62 2.32506C29.6341 2.69251 30.593 3.19721 31.47 3.82506C32.1703 3.33895 32.9893 3.05201 33.8399 2.99482C34.6904 2.93764 35.5405 3.11235 36.2996 3.50034C37.0586 3.88833 37.6981 4.47505 38.1499 5.19793C38.6017 5.92081 38.8489 6.75276 38.865 7.60506C38.8556 8.48051 38.5984 9.33539 38.1232 10.0707C37.648 10.8061 36.9743 11.3918 36.18 11.7601C36.2403 12.2226 36.2704 12.6886 36.27 13.1551C36.266 13.758 36.2158 14.3598 36.12 14.9551C37.7541 14.535 39.2034 13.5864 40.2425 12.2571C41.2815 10.9278 41.852 9.29223 41.865 7.60506C41.8452 5.57602 41.0232 3.63726 39.5786 2.21232C38.134 0.787368 36.1841 -0.00796282 34.155 6.01142e-05Z" fill="#0CBC8B"/>
</svg>
