<svg width="57" height="52" viewBox="0 0 57 52" fill="none" xmlns="http://www.w3.org/2000/svg">
<path d="M39.5811 33.0096L45.8033 36.6052L43.8908 39.9203L35.756 35.2281V25.8183H39.5811V33.0096ZM56.1567 33.4686C56.1567 43.3374 48.1749 51.3192 38.3061 51.3192C28.4372 51.3192 20.4554 43.3374 20.4554 33.4686C20.4554 32.6015 20.5319 31.76 20.6594 30.9185H0.0546875V0.317383H45.9563V17.352C51.9745 20.2336 56.1567 26.3538 56.1567 33.4686ZM22.1895 25.8183C22.6485 24.9003 23.133 24.0332 23.7195 23.1917C23.49 23.2682 23.2605 23.2682 23.0055 23.2682C18.7724 23.2682 15.3552 19.8511 15.3552 15.6179C15.3552 11.3848 18.7724 7.96766 23.0055 7.96766C27.2387 7.96766 30.6558 11.3848 30.6558 15.6179C30.6558 16.2555 30.5538 16.893 30.4008 17.4795C32.7979 16.3065 35.4755 15.6179 38.3061 15.6179C39.1731 15.6179 40.0146 15.6944 40.8561 15.8219V10.5177C39.5035 10.5177 38.2062 9.98041 37.2498 9.02394C36.2933 8.06747 35.756 6.77022 35.756 5.41757H10.2551C10.2551 8.24817 7.98547 10.5177 5.15487 10.5177V20.7181C6.50752 20.7181 7.80477 21.2555 8.76124 22.2119C9.71771 23.1684 10.2551 24.4656 10.2551 25.8183H22.1895ZM51.0565 33.4686C51.0565 26.4303 45.3443 20.7181 38.3061 20.7181C31.2678 20.7181 25.5556 26.4303 25.5556 33.4686C25.5556 40.5068 31.2678 46.219 38.3061 46.219C45.3443 46.219 51.0565 40.5068 51.0565 33.4686Z" fill="#0D75BC"/>
</svg>
