<svg width="47" height="47" viewBox="0 0 47 47" fill="none" xmlns="http://www.w3.org/2000/svg">
<path fill-rule="evenodd" clip-rule="evenodd" d="M0.650269 5.89217C0.650269 4.53952 1.18761 3.24227 2.14408 2.2858C3.10055 1.32933 4.3978 0.791992 5.75045 0.791992H41.4517C42.8044 0.791992 44.1016 1.32933 45.0581 2.2858C46.0146 3.24227 46.5519 4.53952 46.5519 5.89217V41.5934C46.5519 42.9461 46.0146 44.2434 45.0581 45.1998C44.1016 46.1563 42.8044 46.6936 41.4517 46.6936H5.75045C4.3978 46.6936 3.10055 46.1563 2.14408 45.1998C1.18761 44.2434 0.650269 42.9461 0.650269 41.5934V5.89217ZM28.5457 12.6627C27.6455 10.4109 24.4197 10.5384 23.6954 12.8514L19.2277 27.1472L18.2382 25.1658C18.0243 24.7382 17.6956 24.3787 17.2889 24.1274C16.8822 23.8761 16.4136 23.7429 15.9355 23.7428H10.8506C10.1743 23.7428 9.52568 24.0115 9.04745 24.4897C8.56921 24.968 8.30054 25.6166 8.30054 26.2929C8.30054 26.9692 8.56921 27.6179 9.04745 28.0961C9.52568 28.5743 10.1743 28.843 10.8506 28.843H14.3749L17.4656 35.027C18.5035 37.1002 21.5381 36.8554 22.2291 34.6445L26.447 21.1468L28.8772 27.2237C29.2674 28.2029 30.216 28.843 31.2692 28.843H36.3515C37.0279 28.843 37.6765 28.5743 38.1547 28.0961C38.633 27.6179 38.9016 26.9692 38.9016 26.2929C38.9016 25.6166 38.633 24.968 38.1547 24.4897C37.6765 24.0115 37.0279 23.7428 36.3515 23.7428H32.9778L28.5457 12.6627Z" fill="#FBBC05"/>
</svg>
