<svg width="53" height="53" viewBox="0 0 53 53" fill="none" xmlns="http://www.w3.org/2000/svg">
<path d="M52.4542 13.1009V52.2922H0.199097V13.1009H13.3904C13.3564 12.8287 13.3309 12.5565 13.3139 12.2844C13.2969 12.0122 13.2799 11.7401 13.2629 11.4679C13.2629 9.88596 13.5605 8.40608 14.1559 7.02826C14.7512 5.65045 15.5677 4.43422 16.6053 3.3796C17.643 2.32497 18.8507 1.50848 20.2285 0.93014C21.6063 0.351796 23.0947 0.0541195 24.6937 0.0371094C26.2756 0.0371094 27.7555 0.334786 29.1333 0.93014C30.5111 1.52549 31.7273 2.34198 32.782 3.3796C33.8366 4.41721 34.6531 5.62493 35.2314 7.00275C35.8098 8.38057 36.1074 9.86895 36.1244 11.4679C36.1244 11.7401 36.1159 12.0122 36.0989 12.2844C36.0819 12.5565 36.0479 12.8287 35.9969 13.1009H52.4542ZM24.6937 3.30305C23.571 3.30305 22.5164 3.51568 21.5298 3.94093C20.5432 4.36618 19.6757 4.95303 18.9272 5.70148C18.1788 6.44992 17.5919 7.31744 17.1667 8.30402C16.7414 9.29061 16.5288 10.3452 16.5288 11.4679C16.5288 12.5906 16.7414 13.6452 17.1667 14.6318C17.5919 15.6184 18.1703 16.4859 18.9017 17.2343C19.6331 17.9828 20.5007 18.5696 21.5043 18.9949C22.5079 19.4201 23.571 19.6328 24.6937 19.6328C25.8163 19.6328 26.8709 19.4201 27.8575 18.9949C28.8441 18.5696 29.7031 17.9913 30.4346 17.2598C31.166 16.5284 31.7528 15.6609 32.1951 14.6573C32.6374 13.6537 32.8585 12.5906 32.8585 11.4679C32.8585 10.3452 32.6459 9.29061 32.2206 8.30402C31.7954 7.31744 31.2085 6.45843 30.4601 5.72699C29.7116 4.99556 28.8441 4.40871 27.8575 3.96644C26.8709 3.52418 25.8163 3.30305 24.6937 3.30305ZM49.1882 16.3668H35.0273C34.602 17.2513 34.0747 18.0763 33.4454 18.8418C32.816 19.6072 32.0931 20.2621 31.2766 20.8065C33.0286 21.4869 34.6105 22.3884 36.0224 23.5111C37.4342 24.6337 38.6249 25.9265 39.5945 27.3894C40.5641 28.8522 41.321 30.4512 41.8654 32.1862C42.4097 33.9212 42.6733 35.7243 42.6563 37.5954V39.2284H39.3904V37.5954C39.3904 35.5032 39.0162 33.564 38.2677 31.778C37.5193 29.9919 36.4902 28.4355 35.1804 27.1087C33.8706 25.7819 32.3227 24.7528 30.5366 24.0214C28.7506 23.2899 26.8029 22.9157 24.6937 22.8987C22.8055 22.8987 21.0195 23.2219 19.3355 23.8683C17.6515 24.5147 16.1546 25.4247 14.8448 26.5984C13.535 27.7721 12.4634 29.1499 11.6299 30.7319C10.7964 32.3138 10.2776 34.0573 10.0735 35.9625H26.6073L20.7388 30.094L23.0607 27.7976L32.8585 37.5954L23.0607 47.3933L20.7388 45.0969L26.6073 39.2284H6.73098V37.5954C6.73098 35.7243 6.99464 33.9298 7.52195 32.2117C8.04926 30.4937 8.81472 28.9033 9.81831 27.4404C10.8219 25.9775 12.0211 24.6848 13.416 23.5621C14.8108 22.4394 16.3842 21.5294 18.1363 20.832C16.4693 19.6583 15.2105 18.1699 14.36 16.3668H3.46504V49.0262H49.1882V16.3668Z" fill="#8833FF"/>
</svg>
