<svg width="51" height="44" viewBox="0 0 51 44" fill="none" xmlns="http://www.w3.org/2000/svg">
<path d="M42.285 40.5952L47.4589 43.7417L46.0862 37.8076L50.7321 33.8374L44.6291 33.3095L42.285 27.7343L39.8986 33.3095L33.8378 33.8374L38.4415 37.8076L37.0055 43.7417L42.285 40.5952ZM29.7831 38.2933H4.27266C3.16487 38.2544 2.11302 37.797 1.32921 37.0132C0.545402 36.2294 0.0879407 35.1775 0.0490723 34.0697L0.0490723 4.50459C0.133544 2.20274 1.9708 0.365478 4.27266 0.281006H46.5085C48.8104 0.365478 50.6477 2.20274 50.7321 4.50459V26.7418C49.5073 25.6225 48.0924 24.7989 46.5085 24.2288V4.50459H4.27266V34.0697H29.7831C29.6775 34.7666 29.6142 35.4635 29.6142 36.1815C29.6142 36.8995 29.6775 37.6175 29.7831 38.2933ZM29.6142 29.8461H8.49625V27.2064C8.49625 23.7008 15.5496 21.9269 19.0552 21.9269C22.5608 21.9269 29.6142 23.7008 29.6142 27.2064V29.8461ZM29.6142 17.1754H38.0614V19.2872H29.6142V17.1754ZM19.0552 8.72818C16.1621 8.72818 13.7757 11.1145 13.7757 14.0077C13.7757 16.9008 16.1621 19.2872 19.0552 19.2872C21.9484 19.2872 24.3347 16.9008 24.3347 14.0077C24.3347 11.1145 21.9484 8.72818 19.0552 8.72818ZM29.6142 12.9518H42.285V15.0636H29.6142V12.9518ZM29.6142 8.72818H42.285V10.84H29.6142V8.72818Z" fill="#F3723F"/>
</svg>
