<svg width="16" height="20" viewBox="0 0 16 20" fill="none" xmlns="http://www.w3.org/2000/svg">
<path fill-rule="evenodd" clip-rule="evenodd" d="M8.08648 19.5C9.18648 19.5 10.0865 18.6 10.0865 17.5H6.08648C6.08648 18.6 6.97648 19.5 8.08648 19.5ZM14.0865 13.5V8.5C14.0865 5.43 12.4465 2.86 9.58648 2.18V1.5C9.58648 0.67 8.91648 0 8.08648 0C7.25648 0 6.58648 0.67 6.58648 1.5V2.18C3.71648 2.86 2.08648 5.42 2.08648 8.5V13.5L0.796477 14.79C0.166477 15.42 0.606477 16.5 1.49648 16.5H14.6665C15.5565 16.5 16.0065 15.42 15.3765 14.79L14.0865 13.5Z" fill="#F3723F"/>
</svg>
