<svg width="30" height="30" viewBox="0 0 30 30" fill="none" xmlns="http://www.w3.org/2000/svg">
<path d="M14.9993 19.0001C17.2085 19.0001 18.9993 17.2092 18.9993 15.0001C18.9993 12.7909 17.2085 11.0001 14.9993 11.0001C12.7902 11.0001 10.9993 12.7909 10.9993 15.0001C10.9993 17.2092 12.7902 19.0001 14.9993 19.0001Z" stroke="#F3723F" stroke-width="2.66667" stroke-linecap="round" stroke-linejoin="round"/>
<path d="M23.969 18.6364C23.8077 19.002 23.7596 19.4076 23.8309 19.8008C23.9022 20.194 24.0896 20.5568 24.369 20.8425L24.4418 20.9152C24.6672 21.1404 24.846 21.4077 24.968 21.702C25.09 21.9963 25.1528 22.3118 25.1528 22.6304C25.1528 22.949 25.09 23.2644 24.968 23.5587C24.846 23.853 24.6672 24.1204 24.4418 24.3455C24.2166 24.5709 23.9493 24.7497 23.655 24.8717C23.3607 24.9937 23.0452 25.0565 22.7266 25.0565C22.408 25.0565 22.0926 24.9937 21.7983 24.8717C21.504 24.7497 21.2366 24.5709 21.0115 24.3455L20.9387 24.2728C20.6531 23.9934 20.2902 23.8059 19.897 23.7346C19.5038 23.6633 19.0983 23.7115 18.7327 23.8728C18.3742 24.0265 18.0684 24.2816 17.8531 24.6068C17.6377 24.932 17.5221 25.3131 17.5206 25.7031V25.9092C17.5206 26.5521 17.2652 27.1687 16.8105 27.6234C16.3559 28.078 15.7393 28.3334 15.0963 28.3334C14.4534 28.3334 13.8368 28.078 13.3821 27.6234C12.9275 27.1687 12.6721 26.5521 12.6721 25.9092V25.8001C12.6627 25.3989 12.5328 25.0098 12.2994 24.6834C12.0659 24.3569 11.7396 24.1083 11.363 23.9698C10.9974 23.8084 10.5918 23.7603 10.1986 23.8316C9.80543 23.9029 9.4426 24.0903 9.15692 24.3698L9.0842 24.4425C8.85905 24.6679 8.59168 24.8467 8.29739 24.9687C8.00309 25.0907 7.68763 25.1535 7.36905 25.1535C7.05046 25.1535 6.735 25.0907 6.44071 24.9687C6.14641 24.8467 5.87904 24.6679 5.65389 24.4425C5.4285 24.2174 5.24969 23.95 5.12769 23.6557C5.00569 23.3614 4.9429 23.0459 4.9429 22.7274C4.9429 22.4088 5.00569 22.0933 5.12769 21.799C5.24969 21.5047 5.4285 21.2373 5.65389 21.0122L5.72662 20.9395C6.00606 20.6538 6.19351 20.291 6.26481 19.8978C6.3361 19.5046 6.28797 19.099 6.12662 18.7334C5.97297 18.3749 5.71784 18.0692 5.39264 17.8538C5.06744 17.6384 4.68636 17.5228 4.29632 17.5213H4.09026C3.44731 17.5213 2.83069 17.2659 2.37606 16.8112C1.92143 16.3566 1.66602 15.74 1.66602 15.0971C1.66602 14.4541 1.92143 13.8375 2.37606 13.3829C2.83069 12.9282 3.44731 12.6728 4.09026 12.6728H4.19935C4.60055 12.6634 4.98966 12.5336 5.31608 12.3001C5.64249 12.0666 5.89113 11.7404 6.02965 11.3637C6.191 10.9981 6.23914 10.5926 6.16784 10.1994C6.09654 9.80616 5.90909 9.44333 5.62965 9.15766L5.55692 9.08493C5.33153 8.85978 5.15272 8.59242 5.03072 8.29812C4.90872 8.00382 4.84593 7.68836 4.84593 7.36978C4.84593 7.0512 4.90872 6.73574 5.03072 6.44144C5.15272 6.14714 5.33153 5.87977 5.55692 5.65463C5.78207 5.42923 6.04944 5.25042 6.34374 5.12842C6.63803 5.00642 6.95349 4.94363 7.27208 4.94363C7.59066 4.94363 7.90612 5.00642 8.20042 5.12842C8.49472 5.25042 8.76208 5.42923 8.98723 5.65463L9.05996 5.72735C9.34563 6.00679 9.70846 6.19425 10.1017 6.26554C10.4949 6.33684 10.9004 6.28871 11.266 6.12735H11.363C11.7215 5.9737 12.0272 5.71857 12.2426 5.39337C12.458 5.06817 12.5736 4.6871 12.5751 4.29705V4.09099C12.5751 3.44804 12.8305 2.83143 13.2852 2.37679C13.7398 1.92216 14.3564 1.66675 14.9993 1.66675C15.6423 1.66675 16.2589 1.92216 16.7135 2.37679C17.1682 2.83143 17.4236 3.44804 17.4236 4.09099V4.20008C17.4251 4.59013 17.5407 4.9712 17.7561 5.2964C17.9715 5.6216 18.2772 5.87673 18.6357 6.03038C19.0013 6.19174 19.4069 6.23987 19.8001 6.16857C20.1933 6.09728 20.5561 5.90982 20.8418 5.63038L20.9145 5.55766C21.1396 5.33226 21.407 5.15345 21.7013 5.03145C21.9956 4.90945 22.3111 4.84666 22.6297 4.84666C22.9482 4.84666 23.2637 4.90945 23.558 5.03145C23.8523 5.15345 24.1197 5.33226 24.3448 5.55766C24.5702 5.7828 24.749 6.05017 24.871 6.34447C24.993 6.63877 25.0558 6.95423 25.0558 7.27281C25.0558 7.59139 24.993 7.90685 24.871 8.20115C24.749 8.49545 24.5702 8.76281 24.3448 8.98796L24.2721 9.06069C23.9926 9.34636 23.8052 9.70919 23.7339 10.1024C23.6626 10.4956 23.7107 10.9012 23.8721 11.2667V11.3637C24.0257 11.7222 24.2809 12.028 24.6061 12.2433C24.9313 12.4587 25.3123 12.5743 25.7024 12.5758H25.9084C26.5514 12.5758 27.168 12.8313 27.6226 13.2859C28.0773 13.7405 28.3327 14.3571 28.3327 15.0001C28.3327 15.643 28.0773 16.2596 27.6226 16.7143C27.168 17.1689 26.5514 17.4243 25.9084 17.4243H25.7994C25.4093 17.4259 25.0282 17.5415 24.703 17.7568C24.3778 17.9722 24.1227 18.2779 23.969 18.6364Z" stroke="#F3723F" stroke-width="2.66667" stroke-linecap="round" stroke-linejoin="round"/>
</svg>
