<svg width="37" height="32" viewBox="0 0 37 32" fill="none" xmlns="http://www.w3.org/2000/svg">
<path d="M15.3932 15.7433C15.9803 14.4531 16.8159 13.2913 17.8521 12.3241C18.8883 11.357 20.1048 10.6034 21.4323 10.1065C22.7598 9.60958 24.1722 9.37905 25.5888 9.42808C27.0053 9.47711 28.3984 9.80473 29.6883 10.3922C30.9785 10.9793 32.1403 11.8148 33.1075 12.851C34.0746 13.8872 34.8282 15.1038 35.3251 16.4313C35.822 17.7588 36.0525 19.1712 36.0035 20.5877C35.9545 22.0043 35.6269 23.3974 35.0394 24.6873C34.1844 26.5749 32.8027 28.1756 31.0602 29.2971C29.3177 30.4187 27.2885 31.0134 25.2163 31.0099C21.0527 31.0099 17.2437 28.6042 15.4549 24.8415H0.542969V21.7574C0.635494 19.9994 1.83832 18.5653 4.15144 17.4087C6.46457 16.2521 9.36369 15.6507 12.8796 15.589C13.7586 15.589 14.5913 15.6662 15.3932 15.7433ZM12.8796 0.168213C14.6068 0.214475 16.0563 0.815888 17.2129 1.97245C18.3695 3.12901 18.94 4.57857 18.94 6.33655C18.94 8.09452 18.3695 9.54408 17.2129 10.7006C16.0563 11.8572 14.6068 12.4278 12.8796 12.4278C11.1525 12.4278 9.70294 11.8572 8.54638 10.7006C7.38982 9.54408 6.81925 8.09452 6.81925 6.33655C6.81925 4.57857 7.38982 3.12901 8.54638 1.97245C9.70294 0.815888 11.1525 0.214475 12.8796 0.168213ZM25.2163 27.9257C27.2612 27.9257 29.2224 27.1134 30.6684 25.6674C32.1144 24.2214 32.9267 22.2602 32.9267 20.2153C32.9267 18.1704 32.1144 16.2092 30.6684 14.7632C29.2224 13.3172 27.2612 12.5049 25.2163 12.5049C23.1714 12.5049 21.2102 13.3172 19.7642 14.7632C18.3182 16.2092 17.5059 18.1704 17.5059 20.2153C17.5059 22.2602 18.3182 24.2214 19.7642 25.6674C21.2102 27.1134 23.1714 27.9257 25.2163 27.9257ZM23.6742 15.589H25.9873V19.9377L29.75 22.1121L28.5935 24.1168L23.6742 21.2793V15.589Z" fill="#7D8FB3"/>
</svg>
