<svg width="33" height="31" viewBox="0 0 33 31" fill="none" xmlns="http://www.w3.org/2000/svg">
<path d="M21.4679 11.5396C22.7448 11.5396 23.7811 12.5759 23.7811 13.8527V22.7735C23.7811 24.7019 23.015 26.5513 21.6514 27.9149C20.2878 29.2786 18.4384 30.0446 16.5099 30.0446C14.5815 30.0446 12.7321 29.2786 11.3685 27.9149C10.0048 26.5513 9.23878 24.7019 9.23878 22.7735V13.8527C9.23878 12.5759 10.2737 11.5396 11.5519 11.5396H21.4679ZM2.95766 11.5396L8.74972 11.537C8.27341 12.1109 7.98666 12.8183 7.92889 13.5619L7.91567 13.8527V22.7735C7.91567 24.2711 8.30031 25.6801 8.9731 26.9067C8.06757 27.3018 7.07789 27.4652 6.09341 27.3821C5.10893 27.2989 4.16065 26.972 3.33417 26.4306C2.50769 25.8893 1.82903 25.1507 1.35946 24.2814C0.889884 23.4122 0.644182 22.4397 0.644532 21.4517V13.8527C0.644882 13.2391 0.888879 12.6508 1.32288 12.217C1.75689 11.7833 2.34406 11.5396 2.95766 11.5396ZM24.2701 11.537L30.0543 11.5396C31.3311 11.5396 32.3674 12.5759 32.3674 13.8527V21.453C32.3678 22.4406 32.1223 23.4127 31.653 24.2817C31.1837 25.1507 30.5055 25.8891 29.6794 26.4304C28.8534 26.9717 27.9056 27.2988 26.9215 27.3822C25.9375 27.4656 24.9481 27.3026 24.0428 26.908L24.1168 26.7732C24.6838 25.6986 25.0288 24.4878 25.0923 23.2044L25.1029 22.7735V13.8527C25.1029 12.9724 24.7896 12.1661 24.2701 11.537ZM16.506 0.965332C17.1135 0.965332 17.7151 1.08499 18.2763 1.31748C18.8376 1.54998 19.3476 1.89074 19.7772 2.32033C20.2068 2.74992 20.5476 3.25991 20.7801 3.82119C21.0125 4.38247 21.1322 4.98405 21.1322 5.59158C21.1322 6.19911 21.0125 6.80069 20.7801 7.36197C20.5476 7.92325 20.2068 8.43325 19.7772 8.86283C19.3476 9.29242 18.8376 9.63319 18.2763 9.86568C17.7151 10.0982 17.1135 10.2178 16.506 10.2178C15.279 10.2178 14.1023 9.73042 13.2347 8.86283C12.3671 7.99524 11.8797 6.81854 11.8797 5.59158C11.8797 4.36462 12.3671 3.18792 13.2347 2.32033C14.1023 1.45274 15.279 0.965332 16.506 0.965332ZM27.0842 2.28712C27.6049 2.28712 28.1206 2.38969 28.6017 2.58896C29.0828 2.78824 29.5199 3.08033 29.8881 3.44854C30.2564 3.81676 30.5484 4.2539 30.7477 4.735C30.947 5.2161 31.0496 5.73174 31.0496 6.25247C31.0496 6.77321 30.947 7.28885 30.7477 7.76995C30.5484 8.25105 30.2564 8.68819 29.8881 9.05641C29.5199 9.42462 29.0828 9.71671 28.6017 9.91599C28.1206 10.1153 27.6049 10.2178 27.0842 10.2178C26.0325 10.2178 25.0239 9.80005 24.2803 9.05641C23.5366 8.31276 23.1189 7.30415 23.1189 6.25247C23.1189 5.2008 23.5366 4.19219 24.2803 3.44854C25.0239 2.7049 26.0325 2.28712 27.0842 2.28712ZM5.92771 2.28712C6.44845 2.28712 6.96409 2.38969 7.44519 2.58896C7.92629 2.78824 8.36342 3.08033 8.73164 3.44854C9.09986 3.81676 9.39194 4.2539 9.59122 4.735C9.7905 5.2161 9.89307 5.73174 9.89307 6.25247C9.89307 6.77321 9.7905 7.28885 9.59122 7.76995C9.39194 8.25105 9.09986 8.68819 8.73164 9.05641C8.36342 9.42462 7.92629 9.71671 7.44519 9.91599C6.96409 10.1153 6.44845 10.2178 5.92771 10.2178C4.87603 10.2178 3.86743 9.80005 3.12378 9.05641C2.38013 8.31276 1.96235 7.30415 1.96235 6.25247C1.96235 5.2008 2.38013 4.19219 3.12378 3.44854C3.86743 2.7049 4.87603 2.28712 5.92771 2.28712Z" fill="#7D8FB3"/>
</svg>
