<svg width="20" height="20" viewBox="0 0 20 20" fill="none" xmlns="http://www.w3.org/2000/svg">
<path fill-rule="evenodd" clip-rule="evenodd" d="M18.4071 8.57774L4.62867 8.57774L10.6483 2.55816C11.1293 2.07708 11.1293 1.28763 10.6483 0.806555C10.1672 0.325482 9.39006 0.325482 8.90899 0.806555L0.78008 8.93546C0.299007 9.41654 0.299007 10.1937 0.78008 10.6747L8.89665 18.816C9.12711 19.047 9.44 19.1768 9.76628 19.1768C10.0926 19.1768 10.4055 19.047 10.6359 18.816C11.117 18.3349 11.117 17.5578 10.6359 17.0767L4.62867 11.0448L18.4071 11.0448C19.0855 11.0448 19.6406 10.4897 19.6406 9.81126C19.6406 9.13283 19.0855 8.57774 18.4071 8.57774Z" fill="#F3723F"/>
</svg>
