<svg width="23" height="26" viewBox="0 0 23 26" fill="none" xmlns="http://www.w3.org/2000/svg">
<path fill-rule="evenodd" clip-rule="evenodd" d="M16.442 14.1278H12.7415C12.063 14.1278 11.5079 14.6829 11.5079 15.3613V19.0619C11.5079 19.7403 12.063 20.2954 12.7415 20.2954H16.442C17.1205 20.2954 17.6756 19.7403 17.6756 19.0619V15.3613C17.6756 14.6829 17.1205 14.1278 16.442 14.1278ZM16.442 1.7926V3.02613H6.57386V1.7926C6.57386 1.11417 6.01877 0.559082 5.34034 0.559082C4.6619 0.559082 4.10681 1.11417 4.10681 1.7926V3.02613H2.87329C1.50408 3.02613 0.418585 4.13629 0.418585 5.49317L0.40625 22.7625C0.40625 24.1193 1.50408 25.2295 2.87329 25.2295H20.1426C21.4995 25.2295 22.6096 24.1193 22.6096 22.7625V5.49317C22.6096 4.13629 21.4995 3.02613 20.1426 3.02613H18.9091V1.7926C18.9091 1.11417 18.354 0.559082 17.6756 0.559082C16.9971 0.559082 16.442 1.11417 16.442 1.7926ZM18.9091 22.7625H4.10681C3.42838 22.7625 2.87329 22.2074 2.87329 21.5289V9.19373H20.1426V21.5289C20.1426 22.2074 19.5875 22.7625 18.9091 22.7625Z" fill="#7D8FB3"/>
</svg>
