<svg width="31" height="23" viewBox="0 0 31 23" fill="none" xmlns="http://www.w3.org/2000/svg">
<path d="M5.09576 0.710449C3.76655 0.710449 2.49179 1.23847 1.5519 2.17836C0.612009 3.11825 0.0839844 4.39302 0.0839844 5.72222V7.64982H30.9257V5.72222C30.9257 5.06406 30.796 4.41235 30.5442 3.8043C30.2923 3.19624 29.9231 2.64375 29.4577 2.17836C28.9924 1.71298 28.4399 1.34381 27.8318 1.09195C27.2237 0.840083 26.572 0.710449 25.9139 0.710449H5.09576ZM30.9257 9.96295H0.0839844V17.2878C0.0839844 18.6171 0.612009 19.8918 1.5519 20.8317C2.49179 21.7716 3.76655 22.2996 5.09576 22.2996H25.9139C26.572 22.2996 27.2237 22.17 27.8318 21.9181C28.4399 21.6663 28.9924 21.2971 29.4577 20.8317C29.9231 20.3663 30.2923 19.8138 30.5442 19.2058C30.796 18.5977 30.9257 17.946 30.9257 17.2878V9.96295ZM21.2876 15.3602H25.1428C25.4496 15.3602 25.7438 15.4821 25.9607 15.699C26.1776 15.9159 26.2994 16.2101 26.2994 16.5168C26.2994 16.8235 26.1776 17.1177 25.9607 17.3346C25.7438 17.5515 25.4496 17.6734 25.1428 17.6734H21.2876C20.9809 17.6734 20.6867 17.5515 20.4698 17.3346C20.2529 17.1177 20.1311 16.8235 20.1311 16.5168C20.1311 16.2101 20.2529 15.9159 20.4698 15.699C20.6867 15.4821 20.9809 15.3602 21.2876 15.3602Z" fill="#7D8FB3"/>
</svg>
