<svg width="29" height="29" viewBox="0 0 29 29" fill="none" xmlns="http://www.w3.org/2000/svg">
<path fill-rule="evenodd" clip-rule="evenodd" d="M0.626953 3.71039C0.626953 2.89242 0.951891 2.10795 1.53028 1.52955C2.10868 0.951159 2.89315 0.626221 3.71112 0.626221H25.3003C26.1183 0.626221 26.9027 0.951159 27.4811 1.52955C28.0595 2.10795 28.3845 2.89242 28.3845 3.71039V25.2996C28.3845 26.1175 28.0595 26.902 27.4811 27.4804C26.9027 28.0588 26.1183 28.3837 25.3003 28.3837H3.71112C2.89315 28.3837 2.10868 28.0588 1.53028 27.4804C0.951891 26.902 0.626953 26.1175 0.626953 25.2996V3.71039ZM17.4958 7.80462C16.9514 6.44296 15.0007 6.52006 14.5628 7.91873L11.861 16.5637L11.2627 15.3655C11.1333 15.1069 10.9345 14.8895 10.6886 14.7375C10.4427 14.5856 10.1593 14.505 9.8702 14.505H6.79529C6.3863 14.505 5.99407 14.6674 5.70487 14.9566C5.41567 15.2458 5.2532 15.6381 5.2532 16.0471C5.2532 16.456 5.41567 16.8483 5.70487 17.1375C5.99407 17.4267 6.3863 17.5891 6.79529 17.5891H8.92645L10.7955 21.3287C11.4231 22.5824 13.2582 22.4344 13.6761 21.0974L16.2267 12.9351L17.6963 16.6099C17.9322 17.2021 18.5059 17.5891 19.1427 17.5891H22.2161C22.6251 17.5891 23.0173 17.4267 23.3065 17.1375C23.5957 16.8483 23.7582 16.456 23.7582 16.0471C23.7582 15.6381 23.5957 15.2458 23.3065 14.9566C23.0173 14.6674 22.6251 14.505 22.2161 14.505H20.1759L17.4958 7.80462Z" fill="#7D8FB3"/>
</svg>
