<svg width="29" height="27" viewBox="0 0 29 27" fill="none" xmlns="http://www.w3.org/2000/svg">
<path d="M10.25 2.09668C11.1771 2.09668 12.0834 2.3716 12.8542 2.88667C13.6251 3.40173 14.2259 4.13382 14.5807 4.99035C14.9355 5.84688 15.0283 6.78938 14.8474 7.69867C14.6666 8.60795 14.2201 9.44318 13.5646 10.0987C12.909 10.7543 12.0738 11.2007 11.1645 11.3816C10.2552 11.5625 9.3127 11.4697 8.45617 11.1149C7.59964 10.7601 6.86756 10.1593 6.35249 9.38842C5.83742 8.61756 5.5625 7.71128 5.5625 6.78418C5.5625 5.54098 6.05636 4.34869 6.93544 3.46962C7.81451 2.59054 9.0068 2.09668 10.25 2.09668ZM10.25 0.22168C8.95206 0.22168 7.68327 0.606564 6.60407 1.32766C5.52487 2.04876 4.68374 3.07368 4.18704 4.27282C3.69034 5.47196 3.56038 6.79146 3.8136 8.06446C4.06681 9.33746 4.69183 10.5068 5.60961 11.4246C6.52739 12.3424 7.69672 12.9674 8.96972 13.2206C10.2427 13.4738 11.5622 13.3438 12.7614 12.8471C13.9605 12.3504 14.9854 11.5093 15.7065 10.4301C16.4276 9.35091 16.8125 8.08212 16.8125 6.78418C16.8125 5.0437 16.1211 3.3745 14.8904 2.14379C13.6597 0.913084 11.9905 0.22168 10.25 0.22168ZM19.625 26.4717H17.75V21.7842C17.75 20.541 17.2561 19.3487 16.3771 18.4696C15.498 17.5905 14.3057 17.0967 13.0625 17.0967H7.4375C6.1943 17.0967 5.00201 17.5905 4.12294 18.4696C3.24386 19.3487 2.75 20.541 2.75 21.7842V26.4717H0.875V21.7842C0.875 20.0437 1.5664 18.3745 2.79711 17.1438C4.02782 15.9131 5.69702 15.2217 7.4375 15.2217H13.0625C14.803 15.2217 16.4722 15.9131 17.7029 17.1438C18.9336 18.3745 19.625 20.0437 19.625 21.7842V26.4717ZM19.625 2.09668H29V3.97168H19.625V2.09668ZM19.625 6.78418H29V8.65918H19.625V6.78418ZM19.625 11.4717H26.1875V13.3467H19.625V11.4717Z" fill="#7D8FB3"/>
</svg>
