<svg width="29" height="29" viewBox="0 0 29 29" fill="none" xmlns="http://www.w3.org/2000/svg">
<g clip-path="url(#clip0_676_4064)">
<path d="M16.9221 0.253906H7.55647C6.6179 0.253906 5.71776 0.626752 5.05409 1.29042C4.39042 1.95409 4.01758 2.85422 4.01758 3.7928V25.0261C4.01758 25.9647 4.39042 26.8648 5.05409 27.5285C5.71776 28.1922 6.6179 28.565 7.55647 28.565H21.712C22.6506 28.565 23.5507 28.1922 24.2144 27.5285C24.8781 26.8648 25.2509 25.9647 25.2509 25.0261V8.58268C25.2508 8.11343 25.0643 7.66344 24.7325 7.33168L18.1731 0.772354C17.8414 0.440495 17.3914 0.254006 16.9221 0.253906V0.253906ZM17.2884 6.44696V2.90807L22.5967 8.21641H19.0579C18.5886 8.21641 18.1385 8.02998 17.8067 7.69815C17.4748 7.36631 17.2884 6.91625 17.2884 6.44696ZM19.6842 14.1511L14.3759 19.4595C14.2937 19.5418 14.1961 19.6072 14.0886 19.6518C13.9811 19.6964 13.8659 19.7194 13.7495 19.7194C13.6332 19.7194 13.5179 19.6964 13.4104 19.6518C13.303 19.6072 13.2053 19.5418 13.1231 19.4595L10.469 16.8053C10.3867 16.723 10.3215 16.6254 10.2769 16.5179C10.2324 16.4104 10.2095 16.2952 10.2095 16.1789C10.2095 16.0626 10.2324 15.9474 10.2769 15.8399C10.3215 15.7324 10.3867 15.6348 10.469 15.5525C10.6351 15.3864 10.8604 15.2931 11.0954 15.2931C11.2117 15.2931 11.3269 15.316 11.4344 15.3605C11.5418 15.405 11.6395 15.4703 11.7217 15.5525L13.7495 17.5821L18.4315 12.8984C18.5976 12.7322 18.8229 12.6389 19.0579 12.6389C19.2928 12.6389 19.5181 12.7322 19.6842 12.8984C19.8504 13.0645 19.9437 13.2898 19.9437 13.5247C19.9437 13.7597 19.8504 13.985 19.6842 14.1511Z" fill="white"/>
</g>
<defs>
<clipPath id="clip0_676_4064">
<rect width="28.3111" height="28.3111" fill="white" transform="translate(0.478516 0.253906)"/>
</clipPath>
</defs>
</svg>
