<svg width="31" height="31" viewBox="0 0 31 31" fill="none" xmlns="http://www.w3.org/2000/svg">
<path d="M6.15365 27.0742C6.15365 27.0742 4.25781 27.0742 4.25781 25.1784C4.25781 23.2826 6.15365 17.5951 15.6328 17.5951C25.112 17.5951 27.0078 23.2826 27.0078 25.1784C27.0078 27.0742 25.112 27.0742 25.112 27.0742H6.15365ZM15.6328 15.6992C17.1412 15.6992 18.5879 15.1 19.6545 14.0334C20.7211 12.9668 21.3203 11.5201 21.3203 10.0117C21.3203 8.5033 20.7211 7.05666 19.6545 5.99005C18.5879 4.92344 17.1412 4.32422 15.6328 4.32422C14.1244 4.32422 12.6778 4.92344 11.6111 5.99005C10.5445 7.05666 9.94531 8.5033 9.94531 10.0117C9.94531 11.5201 10.5445 12.9668 11.6111 14.0334C12.6778 15.1 14.1244 15.6992 15.6328 15.6992Z" fill="white"/>
</svg>
