<svg width="38" height="39" viewBox="0 0 38 39" fill="none" xmlns="http://www.w3.org/2000/svg">
<path fill-rule="evenodd" clip-rule="evenodd" d="M27.8658 9.37727H22.6524C22.1285 7.93048 20.7566 6.88281 19.1352 6.88281C17.5138 6.88281 16.1419 7.93048 15.618 9.37727H10.4046C9.03266 9.37727 7.91016 10.4998 7.91016 11.8717V29.3329C7.91016 30.7049 9.03266 31.8274 10.4046 31.8274H27.8658C29.2377 31.8274 30.3603 30.7049 30.3603 29.3329V11.8717C30.3603 10.4998 29.2377 9.37727 27.8658 9.37727ZM19.1332 9.37736C19.8191 9.37736 20.3804 9.93861 20.3804 10.6246C20.3804 11.3106 19.8191 11.8718 19.1332 11.8718C18.4472 11.8718 17.8859 11.3106 17.8859 10.6246C17.8859 9.93861 18.4472 9.37736 19.1332 9.37736ZM20.3838 26.8385H14.1477C13.4617 26.8385 12.9004 26.2772 12.9004 25.5913C12.9004 24.9053 13.4617 24.344 14.1477 24.344H20.3838C21.0698 24.344 21.631 24.9053 21.631 25.5913C21.631 26.2772 21.0698 26.8385 20.3838 26.8385ZM24.1255 21.8494H14.1477C13.4617 21.8494 12.9004 21.2881 12.9004 20.6022C12.9004 19.9162 13.4617 19.3549 14.1477 19.3549H24.1255C24.8115 19.3549 25.3727 19.9162 25.3727 20.6022C25.3727 21.2881 24.8115 21.8494 24.1255 21.8494ZM24.1255 16.8606H14.1477C13.4617 16.8606 12.9004 16.2994 12.9004 15.6134C12.9004 14.9274 13.4617 14.3661 14.1477 14.3661H24.1255C24.8115 14.3661 25.3727 14.9274 25.3727 15.6134C25.3727 16.2994 24.8115 16.8606 24.1255 16.8606Z" fill="white"/>
</svg>
