<svg width="296" height="255" viewBox="0 0 296 255" fill="none" xmlns="http://www.w3.org/2000/svg">
<circle cx="127.5" cy="126.501" r="91.5" stroke="#ECF3FE" stroke-width="6.39271" stroke-linecap="round"/>
<path d="M52.4922 179.931C81.4831 221.322 138.539 231.374 179.93 202.383C221.321 173.392 231.373 116.336 202.382 74.9451C173.391 33.5541 116.335 23.5019 74.9444 52.4928" stroke="#F3723F" stroke-width="10.6545" stroke-linecap="round" stroke-linejoin="round"/>
<path d="M219 126.5C219 75.9664 178.034 35.0005 127.5 35.0005C76.9659 35.0005 36 75.9664 36 126.5C36 177.035 76.9659 218 127.5 218" stroke="#0D75BC" stroke-width="10.6545" stroke-linecap="round" stroke-linejoin="round"/>
<circle cx="127.5" cy="127.5" r="76" fill="white" stroke="#C4C4C4"/>
<circle cx="127.5" cy="127.5" r="38" stroke="#C4C4C4"/>
<path d="M139.064 125.756L141.865 129.117L139.064 132.479" stroke="#0D75BC" stroke-width="2.689" stroke-linecap="round" stroke-linejoin="round"/>
<path d="M140.185 129.117H131.446M135.479 125.084V119.706H123.379V138.529H135.479V133.151" stroke="#0D75BC" stroke-width="2.689" stroke-linecap="round"/>
</svg>
