<svg width="22" height="21" viewBox="0 0 22 21" fill="none" xmlns="http://www.w3.org/2000/svg">
<path d="M9.5 9.75439V6.75439L14.5 10.7544L9.5 14.7544V11.7544H0.5V9.75439H9.5ZM1.958 13.7544H4.082C4.78005 15.4735 6.05371 16.8966 7.68512 17.7803C9.31652 18.6641 11.2043 18.9535 13.0255 18.5991C14.8468 18.2448 16.4883 17.2686 17.6693 15.8376C18.8503 14.4067 19.4975 12.6098 19.5 10.7544C19.501 8.89705 18.8558 7.09723 17.6749 5.66362C16.494 4.23001 14.8511 3.25195 13.028 2.89721C11.2048 2.54246 9.31505 2.83314 7.68278 3.71937C6.05051 4.60561 4.77747 6.03218 4.082 7.75439H1.958C3.232 3.69739 7.022 0.754395 11.5 0.754395C17.023 0.754395 21.5 5.23139 21.5 10.7544C21.5 16.2774 17.023 20.7544 11.5 20.7544C7.022 20.7544 3.232 17.8114 1.958 13.7544Z" fill="white"/>
</svg>
